# xmcd
#
# Track frame offsets:
#	150
#	23917
#	39826
#	51379
#	73441
#	91838
#	107982
#	129544
#	151362
#	169347
#
# Disc length: 2589 seconds
#
# Revision: 0
# Processed by: cddbd v1.5.1PL0 Copyright (c) Steve Scherf et al.
# Submitted via: dBpowerAMP V4.0
#
DISCID=890a1b0a
DTITLE=Dori Previn - One A.M. phonecalls
DYEAR=1900
DGENRE=Cult
TTITLE0=Scared To Be Alone
TTITLE1=Twenty-Mile Zone
TTITLE2=Doppleganger
TTITLE3=The Altruist And The Needy Case
TTITLE4=Lady With The Braid
TTITLE5=Mythical Kings And Iguanas
TTITLE6=Lemon Haired Ladies
TTITLE7=Mary C. Brown And The Hollywood Sign
TTITLE8=King Kong
TTITLE9=Be Careful, Baby, Be Careful
EXTD=
EXTT0=
EXTT1=
EXTT2=
EXTT3=
EXTT4=
EXTT5=
EXTT6=
EXTT7=
EXTT8=
EXTT9=
PLAYORDER=
